<?xml version="1.0" encoding="UTF-8"?>
<svg id="b" data-name="Layer 2" xmlns="http://www.w3.org/2000/svg" viewBox="0 0 425.17 54.21">
  <defs>
    <style>
      .d {
        fill: #f0f0f7;
      }
    </style>
  </defs>
  <g id="c" data-name="Layer 1">
    <g>
      <path class="d" d="M63.34,7.31c0-3.04-.68-4.56-2.06-7.31-6.32,0-10.42,1.2-15.22,4.97-3.7-.89-7.54-1.3-11.35-1.3-4.22,0-8.43.44-12.52,1.41C17.32,1.27,13.23,0,6.83,0c-1.37,2.75-2.06,4.28-2.06,7.31,0,2.32.35,4.66,1.09,6.89C1.96,18.73,0,24.32,0,30.24c0,4.5.79,9.32,2.85,13.41,5.56,10.94,21.15,10.56,31.85,10.56s25.24.25,30.59-10.56c2.02-4.14,2.47-8.91,2.47-13.41,0-5.92-1.62-11.55-5.51-16.12.72-2.19,1.09-4.49,1.09-6.8ZM37.42,51.67h-6.8c-9.88,0-21.23-1.91-21.23-14.3,0-6.2,3.77-11.66,10.38-11.66,2.68,0,5.27.48,7.91.85,2.12.32,4.22.45,6.37.45s4.26-.13,6.37-.45c2.68-.37,5.24-.85,7.91-.85,6.61,0,10.38,5.46,10.38,11.66,0,12.41-11.34,14.3-21.26,14.3Z"/>
      <path class="d" d="M21.09,29.59c-3.64,0-5.18,4.83-5.18,7.78s1.54,7.78,5.18,7.78,5.18-4.83,5.18-7.78-1.54-7.78-5.18-7.78Z"/>
      <path class="d" d="M47.02,29.59c-3.64,0-5.18,4.83-5.18,7.78s1.54,7.78,5.18,7.78,5.18-4.83,5.18-7.78-1.54-7.78-5.18-7.78Z"/>
      <path class="d" d="M120.11,29.96h-22.1v7.21h9.79c0,5.71-3.6,8.59-9.37,8.59-6.97,0-10.39-4.02-10.39-13.39s4.32-13.33,11.71-13.33c6.37,0,9.55,2.34,10.51,7.33h9.61c-1.26-9.25-9.49-15.73-20.12-15.73-12.25,0-21.32,8.83-21.32,21.74s6.97,21.8,19.64,21.8c11.65,0,16.87-8.53,16.93-21.8h2.4l-1.8,6.61v14.59h9.61v-18.5c0-3.3-1.8-5.1-5.1-5.1Z"/>
      <path class="d" d="M146.65,27.68c0-3.36-1.86-5.22-5.22-5.04l-11.41.6v8.41l7.39-.36v13.87h-8.59v8.41h26.42v-8.41h-8.59v-17.47Z"/>
      <path class="d" d="M141.25,20.24c3.54,0,5.76-1.68,5.76-4.8s-2.22-4.8-5.76-4.8-5.64,1.74-5.64,4.8,2.1,4.8,5.64,4.8Z"/>
      <path class="d" d="M169.65,31.65h9.97v-8.41h-9.97v-8.71l-9.61,3v5.7h-7.21v8.41h7.21v17.41c0,3.3,1.8,5.22,5.1,5.1l15.67-.6v-8.41l-11.17.6v-14.11Z"/>
      <path class="d" d="M207.3,22.64c-6.49,0-10.27,4.26-11.47,9.67h-2.4l1.8-5.4V9.43h-9.61v44.14h9.61v-11.23c0-8.53,3.42-11.29,8.65-11.29,4.62,0,6.25,2.1,6.25,7.63v14.89h9.61v-16.39c0-9.37-4.68-14.53-12.43-14.53Z"/>
      <path class="d" d="M248.44,34.47c0,8.53-3.42,11.29-8.65,11.29-4.62,0-6.25-2.1-6.25-7.63v-14.89h-9.61v16.39c0,9.37,4.68,14.53,12.43,14.53,6.49,0,10.27-4.26,11.47-9.67h2.4l-1.8,5.4v3.66h9.61v-30.33h-9.61v11.23Z"/>
      <path class="d" d="M285.61,22.64c-7.51,0-10.39,3.84-11.95,7.87h-2.4l1.8-5.4v-15.67h-9.61v44.14h9.61v-1.86l-1.8-5.4h2.4c1.56,4.02,4.44,7.87,11.95,7.87,8.77,0,13.15-7.21,13.15-15.79s-4.38-15.73-13.15-15.73ZM281.11,45.76c-5.16,0-8.05-2.28-8.05-7.39s2.88-7.33,8.05-7.33,8.05,2.22,8.05,7.33-2.88,7.39-8.05,7.39Z"/>
      <path class="d" d="M319.96,35.49c-4.8-1.56-7.81-2.46-7.81-3.9,0-1.2,1.26-1.74,3.54-1.74,3.3,0,4.92,1.62,4.92,3.78h9.61c0-5.89-4.2-10.99-14.47-10.99-8.35,0-13.21,3.12-13.21,8.53,0,6.79,6.91,8.29,12.55,10.15,4.86,1.62,6.55,2.04,6.55,3.6,0,1.44-1.62,2.04-4.2,2.04-5.04,0-6.67-2.04-6.67-4.38h-9.61c0,7.09,4.8,11.59,15.97,11.59,10.45,0,14.11-3.84,14.11-8.95,0-6.31-5.41-7.81-11.29-9.73Z"/>
      <path class="d" d="M349.26,31.65h9.97v-8.41h-9.97v-8.71l-9.61,3v5.7h-7.21v8.41h7.21v17.41c0,3.3,1.8,5.22,5.1,5.1l15.67-.6v-8.41l-11.17.6v-14.11Z"/>
      <path class="d" d="M379.83,46.36c-5.47,0-7.99-2.46-7.99-5.94h23v-3c0-9.19-6.61-14.77-16.03-14.77s-15.97,5.76-15.97,15.37c0,8.59,5.34,16.15,16.99,16.15,10.51,0,15.49-6.91,16.09-11.29h-9.61c-.6,2.28-3.12,3.48-6.49,3.48ZM378.81,30.44c5.34,0,7.03,2.28,7.03,4.56h-13.99c0-2.28,1.62-4.56,6.97-4.56Z"/>
      <path class="d" d="M405.29,22.76c-3.3-.06-5.16,1.74-5.16,5.04v25.76h9.61v-22.28l15.43.36v-8.41l-19.88-.48Z"/>
    </g>
  </g>
</svg>